<svg width="44" height="44" viewBox="0 0 44 44" fill="none" xmlns="http://www.w3.org/2000/svg">
<path d="M21.9993 20.8725C20.4875 20.8725 19.1925 20.3335 18.1145 19.2555C17.0365 18.1775 16.4981 16.8832 16.4993 15.3725C16.5006 13.8618 17.039 12.5663 18.1145 11.4858C19.1901 10.4054 20.485 9.86821 21.9993 9.87432C23.5137 9.88043 24.8086 10.4182 25.8842 11.4877C26.9597 12.5571 27.4981 13.8527 27.4993 15.3743C27.5006 16.896 26.9622 18.1903 25.8842 19.2573C24.8062 20.3243 23.5112 20.8615 21.9993 20.8725ZM9.16602 34.1293V31.1117C9.16602 30.3551 9.38602 29.6474 9.82602 28.9887C10.2672 28.3287 10.86 27.8165 11.6043 27.4523C13.335 26.6224 15.0669 26.0003 16.8 25.586C18.5319 25.1704 20.265 24.9627 21.9993 24.9627C23.7337 24.9627 25.4674 25.1704 27.2005 25.586C28.9336 26.0015 30.6643 26.6237 32.3925 27.4523C33.1381 27.8165 33.7309 28.3287 34.1708 28.9887C34.6121 29.6474 34.8327 30.3551 34.8327 31.1117V34.1293H9.16602ZM10.9993 32.296H32.9993V31.1117C32.9993 30.7059 32.868 30.3239 32.6052 29.9658C32.3436 29.6089 31.9812 29.307 31.518 29.0602C30.0098 28.3293 28.4539 27.7695 26.8503 27.3808C25.2468 26.9922 23.6298 26.7972 21.9993 26.796C20.3689 26.7948 18.7519 26.9891 17.1483 27.379C15.5448 27.7689 13.9889 28.3287 12.4807 29.0583C12.0162 29.3052 11.6538 29.6071 11.3935 29.964C11.1307 30.3221 10.9993 30.7047 10.9993 31.1117V32.296ZM21.9993 19.041C23.0077 19.041 23.8712 18.6817 24.5898 17.963C25.3085 17.2443 25.6672 16.3802 25.666 15.3707C25.6648 14.3611 25.3061 13.4982 24.5898 12.782C23.8736 12.0658 23.0101 11.7064 21.9993 11.704C20.9886 11.7015 20.1257 12.0609 19.4107 12.782C18.6957 13.5031 18.3363 14.366 18.3327 15.3707C18.329 16.3753 18.6883 17.2388 19.4107 17.9612C20.133 18.6835 20.9959 19.0422 21.9993 19.0373" fill="#1E1E1E"/>
</svg>
