<svg width="44" height="44" viewBox="0 0 44 44" fill="none" xmlns="http://www.w3.org/2000/svg">
<path d="M10.2967 36.6666C9.47532 36.6666 8.77621 36.3781 8.19932 35.8013C7.62243 35.2244 7.33398 34.5259 7.33398 33.7058V10.2941C7.33398 9.4752 7.62243 8.7767 8.19932 8.19859C8.77621 7.6217 9.47532 7.33325 10.2967 7.33325H33.7065C34.5254 7.33325 35.2239 7.6217 35.802 8.19859C36.3789 8.77547 36.6673 9.47459 36.6673 10.2959V33.7058C36.6673 34.5246 36.3789 35.2231 35.802 35.8013C35.2251 36.3781 34.5266 36.6666 33.7065 36.6666H10.2967ZM19.2507 34.8333V22.9166H9.16732V33.7058C9.16732 34.0345 9.27304 34.3046 9.48448 34.5161C9.69593 34.7275 9.96665 34.8333 10.2967 34.8333H19.2507ZM21.084 34.8333H33.7065C34.0353 34.8333 34.3054 34.7275 34.5168 34.5161C34.7283 34.3046 34.834 34.0345 34.834 33.7058V22.9166H21.084V34.8333ZM9.16732 21.0833H34.834V10.2959C34.834 9.96592 34.7283 9.6952 34.5168 9.48375C34.3054 9.27231 34.0353 9.16659 33.7065 9.16659H10.2948C9.96604 9.16659 9.69593 9.27231 9.48448 9.48375C9.27304 9.6952 9.16732 9.96592 9.16732 10.2959V21.0833Z" fill="#1E1E1E"/>
</svg>
