<svg width="44" height="44" viewBox="0 0 44 44" fill="none" xmlns="http://www.w3.org/2000/svg">
<path d="M27.7127 41.0392C26.939 41.0392 26.2869 40.774 25.7565 40.2436C25.2261 39.7131 24.9614 39.0617 24.9627 38.2892C24.9627 37.6806 25.1362 37.1422 25.4833 36.6741C25.8317 36.206 26.2692 35.8747 26.796 35.6804V24.3504C26.2692 24.1561 25.8317 23.8328 25.4833 23.3806C25.135 22.9284 24.9608 22.3979 24.9608 21.7892C24.9608 21.0156 25.2261 20.3635 25.7565 19.8331C26.2869 19.3026 26.939 19.0374 27.7127 19.0374C28.4863 19.0374 29.1378 19.3026 29.667 19.8331C30.1962 20.3635 30.4614 21.015 30.4627 21.7874C30.4627 22.3973 30.2885 22.9284 29.9402 23.3806C29.5918 23.8328 29.1549 24.1567 28.6293 24.3522V31.1392L36.6667 28.4626V24.3522C36.1411 24.1567 35.7042 23.8328 35.3558 23.3806C35.0075 22.9284 34.8333 22.3979 34.8333 21.7892C34.8333 21.0156 35.0986 20.3635 35.629 19.8331C36.1582 19.3039 36.8097 19.0392 37.5833 19.0392C38.357 19.0392 39.0084 19.3039 39.5377 19.8331C40.0681 20.3635 40.3333 21.0156 40.3333 21.7892C40.3333 22.3979 40.1592 22.9284 39.8108 23.3806C39.4637 23.8328 39.0268 24.1567 38.5 24.3522V29.7716L28.6293 33.0496V35.6804C29.1549 35.876 29.5918 36.2072 29.9402 36.6741C30.2885 37.141 30.4627 37.6788 30.4627 38.2874C30.4627 39.0611 30.1974 39.7131 29.667 40.2436C29.1366 40.774 28.4851 41.0392 27.7127 41.0392ZM8.46267 34.8334C7.61811 34.8334 6.9135 34.5511 6.34883 33.9864C5.78417 33.4217 5.50122 32.7165 5.5 31.8708V12.1294C5.5 11.2849 5.78294 10.5802 6.34883 10.0156C6.91472 9.45091 7.61872 9.16797 8.46083 9.16675H17.5927L21.2593 12.8334H36.6667C37.158 12.8334 37.5864 13.0161 37.9518 13.3816C38.3173 13.747 38.5 14.1754 38.5 14.6667H20.5223L16.8557 11.0001H8.46083C8.13206 11.0001 7.86194 11.1058 7.6505 11.3172C7.43906 11.5287 7.33333 11.7994 7.33333 12.1294V31.8726C7.33333 32.2014 7.43906 32.4715 7.6505 32.6829C7.86194 32.8944 8.13267 33.0001 8.46267 33.0001H20.5902V34.8334H8.46267Z" fill="#1E1E1E"/>
</svg>
