<svg width="25" height="25" viewBox="0 0 25 25" fill="none" xmlns="http://www.w3.org/2000/svg">
<circle cx="12.5" cy="12.5" r="12.5" fill="#9EEADB"/>
<path d="M13.0938 16.0625V11.3125H10.7188V12.5H11.9062V16.0625H10.125V17.25H14.875V16.0625H13.0938ZM12.5 7.75C12.3239 7.75 12.1517 7.80223 12.0052 7.9001C11.8587 7.99796 11.7446 8.13706 11.6772 8.2998C11.6098 8.46254 11.5921 8.64161 11.6265 8.81438C11.6609 8.98714 11.7457 9.14584 11.8702 9.27039C11.9948 9.39495 12.1535 9.47977 12.3262 9.51414C12.499 9.5485 12.6781 9.53086 12.8408 9.46346C13.0036 9.39605 13.1427 9.28189 13.2405 9.13543C13.3384 8.98897 13.3906 8.81677 13.3906 8.64062C13.3906 8.40442 13.2968 8.17788 13.1298 8.01086C12.9627 7.84383 12.7362 7.75 12.5 7.75Z" fill="black"/>
<path d="M12.5 20.8125C10.8559 20.8125 9.24881 20.325 7.88183 19.4116C6.51484 18.4982 5.44941 17.2 4.82026 15.6811C4.1911 14.1621 4.02649 12.4908 4.34723 10.8783C4.66797 9.26585 5.45965 7.7847 6.62218 6.62218C7.7847 5.45965 9.26585 4.66797 10.8783 4.34723C12.4908 4.02649 14.1621 4.1911 15.6811 4.82026C17.2 5.44941 18.4982 6.51484 19.4116 7.88183C20.325 9.24881 20.8125 10.8559 20.8125 12.5C20.8125 14.7046 19.9367 16.8189 18.3778 18.3778C16.8189 19.9367 14.7046 20.8125 12.5 20.8125ZM12.5 5.375C11.0908 5.375 9.71327 5.79288 8.54157 6.57578C7.36987 7.35869 6.45664 8.47146 5.91736 9.77338C5.37809 11.0753 5.23699 12.5079 5.51191 13.89C5.78683 15.2721 6.46542 16.5417 7.46187 17.5381C8.45832 18.5346 9.72787 19.2132 11.11 19.4881C12.4921 19.763 13.9247 19.6219 15.2266 19.0826C16.5285 18.5434 17.6413 17.6301 18.4242 16.4584C19.2071 15.2867 19.625 13.9092 19.625 12.5C19.625 10.6103 18.8743 8.79806 17.5381 7.46187C16.2019 6.12567 14.3897 5.375 12.5 5.375Z" fill="black"/>
</svg>
