<svg width="25" height="25" viewBox="0 0 25 25" fill="none" xmlns="http://www.w3.org/2000/svg">
<circle cx="12.5" cy="12.5" r="12.5" fill="#E6A800"/>
<path d="M8.34375 13.6875C8.99959 13.6875 9.53125 13.1558 9.53125 12.5C9.53125 11.8442 8.99959 11.3125 8.34375 11.3125C7.68791 11.3125 7.15625 11.8442 7.15625 12.5C7.15625 13.1558 7.68791 13.6875 8.34375 13.6875Z" fill="black"/>
<path d="M16.6562 13.6875C17.3121 13.6875 17.8438 13.1558 17.8438 12.5C17.8438 11.8442 17.3121 11.3125 16.6562 11.3125C16.0004 11.3125 15.4688 11.8442 15.4688 12.5C15.4688 13.1558 16.0004 13.6875 16.6562 13.6875Z" fill="black"/>
<path d="M12.5 13.6875C13.1558 13.6875 13.6875 13.1558 13.6875 12.5C13.6875 11.8442 13.1558 11.3125 12.5 11.3125C11.8442 11.3125 11.3125 11.8442 11.3125 12.5C11.3125 13.1558 11.8442 13.6875 12.5 13.6875Z" fill="black"/>
<path d="M12.5 20.8125C10.8559 20.8125 9.24881 20.325 7.88183 19.4116C6.51484 18.4982 5.44941 17.2 4.82026 15.6811C4.1911 14.1621 4.02649 12.4908 4.34723 10.8783C4.66797 9.26585 5.45965 7.7847 6.62218 6.62218C7.7847 5.45965 9.26585 4.66797 10.8783 4.34723C12.4908 4.02649 14.1621 4.1911 15.6811 4.82026C17.2 5.44941 18.4982 6.51484 19.4116 7.88183C20.325 9.24881 20.8125 10.8559 20.8125 12.5C20.81 14.7038 19.9334 16.8167 18.3751 18.3751C16.8167 19.9334 14.7038 20.81 12.5 20.8125ZM12.5 5.375C11.0908 5.375 9.71327 5.79288 8.54157 6.57578C7.36987 7.35869 6.45664 8.47146 5.91736 9.77338C5.37809 11.0753 5.23699 12.5079 5.51191 13.89C5.78683 15.2721 6.46542 16.5417 7.46187 17.5381C8.45832 18.5346 9.72787 19.2132 11.11 19.4881C12.4921 19.763 13.9247 19.6219 15.2266 19.0826C16.5285 18.5434 17.6413 17.6301 18.4242 16.4584C19.2071 15.2867 19.625 13.9092 19.625 12.5C19.6228 10.611 18.8714 8.80002 17.5357 7.4643C16.2 6.12858 14.389 5.3772 12.5 5.375Z" fill="black"/>
</svg>
