<svg width="19" height="21" viewBox="0 0 19 21" fill="none" xmlns="http://www.w3.org/2000/svg">
<path fill-rule="evenodd" clip-rule="evenodd" d="M6.37004 5.776C6.01077 6.34129 5.49971 6.78243 4.90135 7.04375C4.7071 7.12625 4.30023 7.2335 4.30023 7.2335V14.1195C5.14777 14.301 5.89261 14.8258 6.37267 15.5797C6.73098 16.1462 6.9226 16.8104 6.9226 17.4882C6.9331 17.9599 6.84779 18.4287 6.67323 18.8632C6.42291 19.4998 5.99487 20.0423 5.4452 20.4197C4.89552 20.7971 4.24985 20.9917 3.59279 20.978C2.94455 20.9787 2.31064 20.7782 1.77104 20.4019C1.23073 20.0254 0.809628 19.4889 0.561393 18.8608C0.313157 18.2327 0.249025 17.5414 0.377167 16.875C0.501854 16.2067 0.811604 15.5935 1.26967 15.1109C1.72773 14.6392 2.30654 14.3147 2.93523 14.1759V7.17987C2.3071 7.03866 1.72978 6.71457 1.26967 6.24487C0.812116 5.76229 0.501512 5.14835 0.377167 4.48075C0.24876 3.8146 0.312493 3.12349 0.560251 2.49542C0.808008 1.86734 1.22858 1.33072 1.76842 0.953875C2.30846 0.576036 2.94339 0.374575 3.59279 0.375C4.03203 0.367246 4.46829 0.451974 4.87569 0.624159C5.28309 0.796343 5.65334 1.05248 5.96448 1.37737C6.27509 1.70382 6.51986 2.09237 6.68423 2.51992C6.8486 2.94746 6.92922 3.40528 6.92129 3.86612C6.92392 4.54537 6.73229 5.21087 6.37004 5.776ZM5.37779 16.5849C5.20954 16.2557 4.95913 15.9805 4.65329 15.7887C4.34883 15.5954 3.99869 15.4953 3.64267 15.5C3.35167 15.4991 3.06412 15.566 2.80085 15.6959C2.53759 15.8258 2.3052 16.0154 2.12052 16.251C1.93583 16.4866 1.80348 16.7623 1.73305 17.0581C1.66262 17.3539 1.65587 17.6624 1.71329 17.9612C1.78764 18.3625 1.97484 18.7312 2.25083 19.0201C2.52682 19.309 2.87898 19.5048 3.26204 19.5824C3.64004 19.6621 4.03117 19.6236 4.39079 19.4724C4.75304 19.3115 5.06279 19.0434 5.28329 18.7024C5.48017 18.3916 5.59173 18.0286 5.6101 17.6574C5.62675 17.2844 5.54646 16.9138 5.37779 16.5849ZM2.55329 5.51887C2.87748 5.74025 3.25679 5.86262 3.64267 5.86262C3.99835 5.86262 4.34879 5.7595 4.65329 5.5725C4.95835 5.37985 5.2082 5.10463 5.37658 4.7758C5.54495 4.44697 5.62563 4.07668 5.6101 3.70387C5.59306 3.33084 5.47965 2.96966 5.28198 2.65887C5.06183 2.31718 4.7518 2.04971 4.38948 1.88887C4.03166 1.73706 3.63914 1.69881 3.26073 1.77887C2.87773 1.85676 2.52573 2.05288 2.24997 2.34201C1.97422 2.63114 1.78731 3.00008 1.71329 3.40137C1.63717 3.79737 1.67392 4.20712 1.81829 4.58387C1.97185 4.96337 2.22779 5.28787 2.55329 5.51887ZM16.1101 14.1759C16.7401 14.3092 17.3202 14.6365 17.7757 15.1109C18.3873 15.7571 18.7325 16.633 18.7272 17.5391C18.7299 18.217 18.5382 18.8825 18.176 19.4476C17.8162 20.0141 17.3039 20.456 16.7042 20.7172C16.1044 20.9783 15.4441 21.0471 14.807 20.9147C14.1699 20.7823 13.5847 20.4547 13.1255 19.9735C12.6663 19.4922 12.3539 18.879 12.2277 18.2115C12.102 17.5444 12.168 16.8533 12.4173 16.2255C12.6666 15.5977 13.088 15.0615 13.6282 14.6846C13.9786 14.433 14.3776 14.2611 14.795 14.1759V6.54737C14.7946 6.0006 14.5871 5.47635 14.2179 5.08986C13.8487 4.70336 13.3481 4.48625 12.8262 4.48625H10.4007L12.0663 6.2325L11.1344 7.20737L8.3401 4.28V3.3175L11.1357 0.38875L12.0676 1.36637L10.402 3.11262H12.8302C13.4801 3.10806 14.1164 3.30744 14.6573 3.68507C15.1981 4.0627 15.6186 4.6013 15.8647 5.2315C16.0287 5.64675 16.1127 6.095 16.1101 6.54737V14.1759ZM16.8412 19.0007C17.1651 18.6658 17.3673 18.223 17.4131 17.7487C17.4588 17.2743 17.3452 16.7981 17.0919 16.402C16.8715 16.0608 16.5615 15.7938 16.1994 15.6334C15.8415 15.4816 15.449 15.4433 15.0706 15.5234C14.6876 15.6013 14.3356 15.7974 14.0598 16.0865C13.7841 16.3756 13.5972 16.7446 13.5232 17.1459C13.4467 17.5423 13.4833 17.9535 13.6282 18.3284C13.7505 18.6435 13.9454 18.9218 14.1956 19.1386C14.4458 19.3554 14.7433 19.5038 15.0617 19.5706C15.38 19.6373 15.7092 19.6204 16.0198 19.5212C16.3303 19.4219 16.6125 19.2436 16.8412 19.0021V19.0007Z" fill="white"/>
</svg>
