<svg width="21" height="22" viewBox="0 0 21 22" fill="none" xmlns="http://www.w3.org/2000/svg">
<path fill-rule="evenodd" clip-rule="evenodd" d="M7.37004 6.776C7.01077 7.34129 6.49971 7.78243 5.90135 8.04375C5.7071 8.12625 5.30023 8.2335 5.30023 8.2335V15.1195C6.14777 15.301 6.89261 15.8258 7.37267 16.5797C7.73098 17.1462 7.9226 17.8104 7.9226 18.4882C7.9331 18.9599 7.84779 19.4287 7.67323 19.8632C7.42291 20.4998 6.99487 21.0423 6.4452 21.4197C5.89552 21.7971 5.24985 21.9917 4.59279 21.978C3.94455 21.9787 3.31064 21.7782 2.77104 21.4019C2.23073 21.0254 1.80963 20.4889 1.56139 19.8608C1.31316 19.2327 1.24902 18.5414 1.37717 17.875C1.50185 17.2067 1.8116 16.5935 2.26967 16.1109C2.72773 15.6392 3.30654 15.3147 3.93523 15.1759V8.17987C3.3071 8.03866 2.72978 7.71457 2.26967 7.24487C1.81212 6.76229 1.50151 6.14835 1.37717 5.48075C1.24876 4.8146 1.31249 4.12349 1.56025 3.49542C1.80801 2.86734 2.22858 2.33072 2.76842 1.95387C3.30846 1.57604 3.94339 1.37457 4.59279 1.375C5.03203 1.36725 5.46829 1.45197 5.87569 1.62416C6.28309 1.79634 6.65334 2.05248 6.96448 2.37737C7.27509 2.70382 7.51986 3.09237 7.68423 3.51992C7.8486 3.94746 7.92922 4.40528 7.92129 4.86612C7.92392 5.54537 7.73229 6.21087 7.37004 6.776ZM6.37779 17.5849C6.20954 17.2557 5.95913 16.9805 5.65329 16.7887C5.34883 16.5954 4.99869 16.4953 4.64267 16.5C4.35167 16.4991 4.06412 16.566 3.80085 16.6959C3.53759 16.8258 3.3052 17.0154 3.12052 17.251C2.93583 17.4866 2.80348 17.7623 2.73305 18.0581C2.66262 18.3539 2.65587 18.6624 2.71329 18.9613C2.78764 19.3625 2.97484 19.7312 3.25083 20.0201C3.52682 20.309 3.87898 20.5048 4.26204 20.5824C4.64004 20.6621 5.03117 20.6236 5.39079 20.4724C5.75304 20.3115 6.06279 20.0434 6.28329 19.7024C6.48017 19.3916 6.59173 19.0286 6.6101 18.6574C6.62675 18.2844 6.54646 17.9138 6.37779 17.5849ZM3.55329 6.51887C3.87748 6.74025 4.25679 6.86262 4.64267 6.86262C4.99835 6.86262 5.34879 6.7595 5.65329 6.5725C5.95835 6.37985 6.2082 6.10463 6.37658 5.7758C6.54495 5.44697 6.62563 5.07668 6.6101 4.70387C6.59306 4.33084 6.47965 3.96966 6.28198 3.65887C6.06183 3.31718 5.7518 3.04971 5.38948 2.88887C5.03166 2.73706 4.63914 2.69881 4.26073 2.77887C3.87773 2.85676 3.52573 3.05288 3.24997 3.34201C2.97422 3.63114 2.78731 4.00008 2.71329 4.40137C2.63717 4.79737 2.67392 5.20712 2.81829 5.58387C2.97185 5.96337 3.22779 6.28787 3.55329 6.51887ZM17.1101 15.1759C17.7401 15.3092 18.3202 15.6365 18.7757 16.1109C19.3873 16.7571 19.7325 17.633 19.7272 18.5391C19.7299 19.217 19.5382 19.8825 19.176 20.4476C18.8162 21.0141 18.3039 21.456 17.7042 21.7172C17.1044 21.9783 16.4441 22.0471 15.807 21.9147C15.1699 21.7823 14.5847 21.4547 14.1255 20.9735C13.6663 20.4922 13.3539 19.879 13.2277 19.2115C13.102 18.5444 13.168 17.8533 13.4173 17.2255C13.6666 16.5977 14.088 16.0615 14.6282 15.6846C14.9786 15.433 15.3776 15.2611 15.795 15.1759V7.54737C15.7946 7.0006 15.5871 6.47635 15.2179 6.08986C14.8487 5.70336 14.3481 5.48625 13.8262 5.48625H11.4007L13.0663 7.2325L12.1344 8.20737L9.3401 5.28V4.3175L12.1357 1.38875L13.0676 2.36637L11.402 4.11262H13.8302C14.4801 4.10806 15.1164 4.30744 15.6573 4.68507C16.1981 5.0627 16.6186 5.6013 16.8647 6.2315C17.0287 6.64675 17.1127 7.095 17.1101 7.54737V15.1759ZM17.8412 20.0007C18.1651 19.6658 18.3673 19.223 18.4131 18.7487C18.4588 18.2743 18.3452 17.7981 18.0919 17.402C17.8715 17.0608 17.5615 16.7938 17.1994 16.6334C16.8415 16.4816 16.449 16.4433 16.0706 16.5234C15.6876 16.6013 15.3356 16.7974 15.0598 17.0865C14.7841 17.3756 14.5972 17.7446 14.5232 18.1459C14.4467 18.5423 14.4833 18.9535 14.6282 19.3284C14.7505 19.6435 14.9454 19.9218 15.1956 20.1386C15.4458 20.3554 15.7433 20.5038 16.0617 20.5706C16.38 20.6373 16.7092 20.6204 17.0198 20.5212C17.3303 20.4219 17.6125 20.2436 17.8412 20.0021V20.0007Z" fill="black"/>
</svg>
