<svg width="44" height="44" viewBox="0 0 44 44" fill="none" xmlns="http://www.w3.org/2000/svg">
<path d="M38.5 13.1304C38.5 11.2182 38.5 10.2612 37.9812 9.54074C37.4623 8.82024 36.5548 8.51774 34.7398 7.91274L32.604 7.20141C30.0978 6.36541 28.8457 5.94741 27.5825 6.11791C26.3212 6.28657 25.2212 7.01807 23.023 8.48291L20.4893 10.1732C18.7733 11.3172 17.9153 11.8892 16.951 12.1166C16.598 12.2008 16.2375 12.25 15.8748 12.2632C14.8848 12.2962 13.9077 11.9699 11.9515 11.3172C9.3885 10.4629 8.107 10.0357 7.13167 10.4702C6.78603 10.624 6.47585 10.8475 6.2205 11.1266C5.5 11.9167 5.5 13.2661 5.5 15.9684V23.4209M38.5 20.1667V28.0317C38.5 30.7341 38.5 32.0852 37.7795 32.8717C37.5245 33.1522 37.2143 33.3769 36.8683 33.5317C35.893 33.9644 34.6115 33.5372 32.0485 32.6829C30.0923 32.0302 29.1152 31.7039 28.1252 31.7387C27.762 31.7507 27.4009 31.7986 27.0472 31.8817C26.0847 32.1109 25.2267 32.6829 23.5107 33.8251L20.977 35.5154C18.777 36.9821 17.6788 37.7154 16.4175 37.8822C15.1562 38.0527 13.9022 37.6347 11.396 36.7987L9.26017 36.0874C7.44517 35.4824 6.53767 35.1799 6.01883 34.4594C5.5275 33.7774 5.50183 32.8827 5.5 31.1667M27.5 6.41674V12.8334M27.5 31.1667V20.1667M16.5 37.5834V31.1667M16.5 12.8334V23.8334" stroke="black" stroke-width="1.5" stroke-linecap="round"/>
</svg>
