<svg width="18" height="18" viewBox="0 0 18 18" fill="none" xmlns="http://www.w3.org/2000/svg">
<g clip-path="url(#clip0_477_4285)">
<path d="M17.1558 0H10.4058C9.9423 0 9.29318 0.268875 8.9658 0.59625L0.596929 8.96513C0.518523 9.04348 0.456324 9.13652 0.413888 9.23892C0.371452 9.34133 0.349609 9.45109 0.349609 9.56194C0.349609 9.67279 0.371452 9.78255 0.413888 9.88495C0.456324 9.98736 0.518523 10.0804 0.596929 10.1587L7.8408 17.4026C7.91916 17.481 8.0122 17.5432 8.1146 17.5857C8.21701 17.6281 8.32677 17.6499 8.43762 17.6499C8.54847 17.6499 8.65823 17.6281 8.76063 17.5857C8.86303 17.5432 8.95607 17.481 9.03443 17.4026L17.4033 9.03375C17.7318 8.70525 17.9996 8.05725 17.9996 7.59375V0.84375C17.9987 0.620247 17.9095 0.406152 17.7514 0.24811C17.5934 0.0900689 17.3793 0.00088869 17.1558 0ZM12.9371 6.75C12.7154 6.74993 12.4959 6.70619 12.2911 6.62129C12.0863 6.53639 11.9003 6.41198 11.7436 6.25518C11.5869 6.09838 11.4626 5.91224 11.3778 5.70741C11.2931 5.50258 11.2495 5.28305 11.2496 5.06138C11.2496 4.8397 11.2934 4.6202 11.3783 4.41542C11.4632 4.21065 11.5876 4.0246 11.7444 3.8679C11.9012 3.7112 12.0873 3.58692 12.2921 3.50216C12.497 3.41739 12.7165 3.3738 12.9382 3.37388C13.3859 3.37402 13.8152 3.55202 14.1317 3.86869C14.4481 4.18537 14.6258 4.6148 14.6257 5.0625C14.6255 5.5102 14.4475 5.93951 14.1309 6.25598C13.8142 6.57244 13.3848 6.75015 12.9371 6.75Z" fill="black"/>
</g>
<defs>
<clipPath id="clip0_477_4285">
<rect width="18" height="18" fill="white"/>
</clipPath>
</defs>
</svg>
