<svg width="25" height="25" viewBox="0 0 25 25" fill="none" xmlns="http://www.w3.org/2000/svg">
<circle cx="12.5" cy="12.5" r="12.5" fill="#FF0000"/>
<path d="M19.8059 8.27829C19.8059 8.10069 19.7317 7.93036 19.5997 7.80478C19.4677 7.67919 19.2886 7.60864 19.1019 7.60864H5.49111C5.3044 7.60864 5.12533 7.67919 4.99331 7.80478C4.86128 7.93036 4.78711 8.10069 4.78711 8.27829C4.78711 8.45589 4.86128 8.62621 4.99331 8.75179C5.12533 8.87738 5.3044 8.94793 5.49111 8.94793H19.1019C19.2886 8.94793 19.4677 8.87738 19.5997 8.75179C19.7317 8.62621 19.8059 8.45589 19.8059 8.27829ZM19.8059 10.9569C19.8059 10.7793 19.7317 10.6089 19.5997 10.4833C19.4677 10.3578 19.2886 10.2872 19.1019 10.2872H5.49111C5.3044 10.2872 5.12533 10.3578 4.99331 10.4833C4.86128 10.6089 4.78711 10.7793 4.78711 10.9569C4.78711 11.1345 4.86128 11.3048 4.99331 11.4304C5.12533 11.5559 5.3044 11.6265 5.49111 11.6265H14.3672C15.0428 11.332 15.7773 11.1797 16.5205 11.1801C17.2637 11.1797 17.9982 11.332 18.6738 11.6265H19.1019C19.2886 11.6265 19.4677 11.5559 19.5997 11.4304C19.7317 11.3048 19.8059 11.1345 19.8059 10.9569ZM11.4423 16.9836H5.49111C5.3044 16.9836 5.12533 16.9131 4.99331 16.7875C4.86128 16.6619 4.78711 16.4916 4.78711 16.314C4.78711 16.1364 4.86128 15.9661 4.99331 15.8405C5.12533 15.7149 5.3044 15.6444 5.49111 15.6444H11.3785C11.3368 16.0915 11.3576 16.542 11.4423 16.9836ZM11.7108 14.3051H5.49111C5.3044 14.3051 5.12533 14.2345 4.99331 14.1089C4.86128 13.9834 4.78711 13.813 4.78711 13.6354C4.78711 13.4578 4.86128 13.2875 4.99331 13.1619C5.12533 13.0363 5.3044 12.9658 5.49111 12.9658H12.5377C12.1888 13.3676 11.9093 13.8197 11.7098 14.3051M20.7446 16.0908C20.7446 17.1564 20.2995 18.1783 19.5074 18.9318C18.7152 19.6853 17.6408 20.1086 16.5205 20.1086C15.4002 20.1086 14.3258 19.6853 13.5337 18.9318C12.7415 18.1783 12.2965 17.1564 12.2965 16.0908C12.2965 15.0252 12.7415 14.0032 13.5337 13.2497C14.3258 12.4962 15.4002 12.0729 16.5205 12.0729C17.6408 12.0729 18.7152 12.4962 19.5074 13.2497C20.2995 14.0032 20.7446 15.0252 20.7446 16.0908ZM16.5205 16.722L17.5962 17.7461C17.6399 17.7876 17.6917 17.8206 17.7487 17.843C17.8057 17.8655 17.8668 17.8771 17.9285 17.8771C17.9902 17.8771 18.0514 17.8655 18.1084 17.843C18.1654 17.8206 18.2172 17.7876 18.2608 17.7461C18.3045 17.7046 18.3391 17.6554 18.3627 17.6011C18.3863 17.5469 18.3985 17.4888 18.3985 17.4301C18.3985 17.3714 18.3863 17.3132 18.3627 17.259C18.3391 17.2048 18.3045 17.1555 18.2608 17.114L17.1842 16.0908L18.2608 15.0676C18.349 14.9837 18.3985 14.87 18.3985 14.7515C18.3985 14.633 18.349 14.5193 18.2608 14.4354C18.1727 14.3516 18.0532 14.3045 17.9285 14.3045C17.8039 14.3045 17.6844 14.3516 17.5962 14.4354L16.5205 15.4595L15.4448 14.4354C15.3567 14.3516 15.2371 14.3045 15.1125 14.3045C14.9879 14.3045 14.8684 14.3516 14.7802 14.4354C14.6921 14.5193 14.6426 14.633 14.6426 14.7515C14.6426 14.87 14.6921 14.9837 14.7802 15.0676L15.8569 16.0908L14.7802 17.114C14.7366 17.1555 14.702 17.2048 14.6784 17.259C14.6547 17.3132 14.6426 17.3714 14.6426 17.4301C14.6426 17.4888 14.6547 17.5469 14.6784 17.6011C14.702 17.6554 14.7366 17.7046 14.7802 17.7461C14.8239 17.7876 14.8757 17.8206 14.9327 17.843C14.9897 17.8655 15.0508 17.8771 15.1125 17.8771C15.1742 17.8771 15.2353 17.8655 15.2924 17.843C15.3494 17.8206 15.4012 17.7876 15.4448 17.7461L16.5205 16.722Z" fill="black"/>
</svg>
