<svg width="13" height="17" viewBox="0 0 13 17" fill="none" xmlns="http://www.w3.org/2000/svg">
<path d="M11.3119 4.89657C11.3119 4.73195 11.2629 4.57408 11.1756 4.45767C11.0883 4.34127 10.9699 4.27588 10.8465 4.27588H1.84824C1.7248 4.27588 1.60642 4.34127 1.51913 4.45767C1.43185 4.57408 1.38281 4.73195 1.38281 4.89657C1.38281 5.06119 1.43185 5.21906 1.51913 5.33546C1.60642 5.45186 1.7248 5.51726 1.84824 5.51726H10.8465C10.9699 5.51726 11.0883 5.45186 11.1756 5.33546C11.2629 5.21906 11.3119 5.06119 11.3119 4.89657ZM11.3119 7.37933C11.3119 7.21471 11.2629 7.05684 11.1756 6.94043C11.0883 6.82403 10.9699 6.75864 10.8465 6.75864H1.84824C1.7248 6.75864 1.60642 6.82403 1.51913 6.94043C1.43185 7.05684 1.38281 7.21471 1.38281 7.37933C1.38281 7.54394 1.43185 7.70182 1.51913 7.81822C1.60642 7.93462 1.7248 8.00002 1.84824 8.00002H7.71632C8.16299 7.72705 8.64858 7.5859 9.1399 7.58622C9.63123 7.5859 10.1168 7.72705 10.5635 8.00002H10.8465C10.9699 8.00002 11.0883 7.93462 11.1756 7.81822C11.2629 7.70182 11.3119 7.54394 11.3119 7.37933ZM5.78264 12.9655H1.84824C1.7248 12.9655 1.60642 12.9001 1.51913 12.7837C1.43185 12.6673 1.38281 12.5095 1.38281 12.3448C1.38281 12.1802 1.43185 12.0224 1.51913 11.906C1.60642 11.7895 1.7248 11.7242 1.84824 11.7242H5.74044C5.71286 12.1386 5.72664 12.5562 5.78264 12.9655ZM5.96012 10.4828H1.84824C1.7248 10.4828 1.60642 10.4174 1.51913 10.301C1.43185 10.1846 1.38281 10.0267 1.38281 9.86209C1.38281 9.69747 1.43185 9.53959 1.51913 9.42319C1.60642 9.30679 1.7248 9.2414 1.84824 9.2414H6.50684C6.27615 9.61383 6.09139 10.0329 5.9595 10.4828M11.9325 12.1379C11.9325 13.1257 11.6382 14.0729 11.1145 14.7713C10.5908 15.4697 9.88054 15.8621 9.1399 15.8621C8.39927 15.8621 7.68898 15.4697 7.16527 14.7713C6.64157 14.0729 6.34735 13.1257 6.34735 12.1379C6.34735 11.1502 6.64157 10.203 7.16527 9.50458C7.68898 8.80617 8.39927 8.41381 9.1399 8.41381C9.88054 8.41381 10.5908 8.80617 11.1145 9.50458C11.6382 10.203 11.9325 11.1502 11.9325 12.1379ZM9.1399 12.7231L9.85108 13.6723C9.87992 13.7108 9.91417 13.7413 9.95187 13.7621C9.98956 13.7829 10.03 13.7936 10.0708 13.7936C10.1116 13.7936 10.152 13.7829 10.1896 13.7621C10.2273 13.7413 10.2616 13.7108 10.2904 13.6723C10.3193 13.6338 10.3422 13.5881 10.3578 13.5379C10.3734 13.4876 10.3814 13.4337 10.3814 13.3793C10.3814 13.3249 10.3734 13.271 10.3578 13.2208C10.3422 13.1705 10.3193 13.1248 10.2904 13.0864L9.57865 12.1379L10.2904 11.1895C10.3487 11.1118 10.3814 11.0065 10.3814 10.8966C10.3814 10.7867 10.3487 10.6813 10.2904 10.6036C10.2322 10.5259 10.1532 10.4823 10.0708 10.4823C9.98836 10.4823 9.90934 10.5259 9.85108 10.6036L9.1399 11.5528L8.42873 10.6036C8.37047 10.5259 8.29145 10.4823 8.20905 10.4823C8.12666 10.4823 8.04764 10.5259 7.98937 10.6036C7.93111 10.6813 7.89838 10.7867 7.89838 10.8966C7.89838 11.0065 7.93111 11.1118 7.98937 11.1895L8.70116 12.1379L7.98937 13.0864C7.96052 13.1248 7.93764 13.1705 7.92203 13.2208C7.90641 13.271 7.89838 13.3249 7.89838 13.3793C7.89838 13.4337 7.90641 13.4876 7.92203 13.5379C7.93764 13.5881 7.96052 13.6338 7.98937 13.6723C8.01822 13.7108 8.05247 13.7413 8.09016 13.7621C8.12786 13.7829 8.16826 13.7936 8.20905 13.7936C8.24985 13.7936 8.29025 13.7829 8.32794 13.7621C8.36564 13.7413 8.39989 13.7108 8.42873 13.6723L9.1399 12.7231Z" fill="white"/>
</svg>
