<svg width="28" height="28" viewBox="0 0 28 28" fill="none" xmlns="http://www.w3.org/2000/svg">
<path d="M8.00852 8.02899C9.39037 6.64256 11.2103 5.77833 13.1581 5.58364C15.1059 5.38895 17.0609 5.87587 18.6898 6.96137C20.3188 8.04687 21.5208 9.66375 22.0909 11.5364C22.6611 13.409 22.5641 15.4214 21.8165 17.2304C21.0689 19.0395 19.717 20.5333 17.9912 21.4572C16.2654 22.381 14.2726 22.6776 12.3526 22.2965C10.4326 21.9154 8.70418 20.8802 7.46206 19.3673C6.21994 17.8544 5.54101 15.9575 5.54102 14C5.54102 13.7679 5.44883 13.5454 5.28473 13.3813C5.12064 13.2172 4.89808 13.125 4.66602 13.125C4.43395 13.125 4.21139 13.2172 4.0473 13.3813C3.8832 13.5454 3.79102 13.7679 3.79102 14C3.79092 16.3625 4.61028 18.652 6.10939 20.478C7.6085 22.3039 9.69455 23.5534 12.0119 24.0134C14.3292 24.4734 16.7343 24.1153 18.8172 23.0003C20.9001 21.8853 22.5317 20.0824 23.434 17.8989C24.3362 15.7154 24.4532 13.2866 23.7649 11.0265C23.0767 8.76648 21.6258 6.8151 19.6597 5.50511C17.6937 4.19511 15.3341 3.60761 12.9833 3.84276C10.6325 4.07792 8.43599 5.12118 6.76835 6.79466C6.73949 6.8243 6.71223 6.85546 6.68668 6.88799L5.22018 5.42033C5.14175 5.34172 5.04252 5.28713 4.93414 5.26298C4.82576 5.23882 4.71274 5.2461 4.60835 5.28396C4.50397 5.32182 4.41255 5.38868 4.34486 5.4767C4.27716 5.56471 4.23599 5.67022 4.22618 5.78083L3.81435 10.318C3.80665 10.4031 3.81775 10.4889 3.84687 10.5692C3.87598 10.6496 3.9224 10.7226 3.98283 10.783C4.04327 10.8434 4.11624 10.8899 4.1966 10.919C4.27696 10.9481 4.36273 10.9592 4.44785 10.9515L8.98618 10.5385C9.09635 10.5281 9.2013 10.4866 9.28877 10.4188C9.37624 10.351 9.44263 10.2598 9.48018 10.1557C9.51773 10.0516 9.5249 9.93896 9.50085 9.83095C9.4768 9.72293 9.42252 9.62399 9.34435 9.54566L7.91168 8.11299C7.94548 8.08679 7.9778 8.05875 8.00852 8.02899Z" fill="black"/>
<path d="M14.875 8.16669C14.875 7.93462 14.7828 7.71206 14.6187 7.54797C14.4546 7.38387 14.2321 7.29169 14 7.29169C13.7679 7.29169 13.5454 7.38387 13.3813 7.54797C13.2172 7.71206 13.125 7.93462 13.125 8.16669V14C13.1249 14.1484 13.1626 14.2943 13.2344 14.4241C13.3063 14.5539 13.4099 14.6633 13.5357 14.742L17.0357 16.9295C17.2325 17.0527 17.4701 17.0926 17.6963 17.0405C17.8084 17.0147 17.9142 16.9671 18.0078 16.9005C18.1015 16.8338 18.181 16.7493 18.242 16.6519C18.303 16.5544 18.3442 16.4459 18.3632 16.3326C18.3823 16.2192 18.3788 16.1032 18.353 15.9912C18.3272 15.8792 18.2796 15.7733 18.2129 15.6797C18.1463 15.5861 18.0618 15.5065 17.9643 15.4455L14.875 13.5147V8.16669Z" fill="black"/>
</svg>
