<svg width="43" height="43" viewBox="0 0 43 43" fill="none" xmlns="http://www.w3.org/2000/svg">
<path d="M13.334 29.6667L29.6673 13.3334M17.4173 15.375C17.4173 15.9165 17.2022 16.4358 16.8193 16.8187C16.4364 17.2016 15.9171 17.4167 15.3757 17.4167C14.8342 17.4167 14.3149 17.2016 13.932 16.8187C13.5491 16.4358 13.334 15.9165 13.334 15.375C13.334 14.8336 13.5491 14.3143 13.932 13.9314C14.3149 13.5485 14.8342 13.3334 15.3757 13.3334C15.9171 13.3334 16.4364 13.5485 16.8193 13.9314C17.2022 14.3143 17.4173 14.8336 17.4173 15.375ZM29.6673 27.2739C29.6673 27.8154 29.4522 28.3347 29.0693 28.7175C28.6864 29.1004 28.1671 29.3155 27.6256 29.3155C27.0842 29.3155 26.5649 29.1004 26.182 28.7175C25.7991 28.3347 25.584 27.8154 25.584 27.2739C25.584 26.7324 25.7991 26.2131 26.182 25.8302C26.5649 25.4473 27.0842 25.2322 27.6256 25.2322C28.1671 25.2322 28.6864 25.4473 29.0693 25.8302C29.4522 26.2131 29.6673 26.7324 29.6673 27.2739Z" stroke="white" stroke-width="2" stroke-linecap="round" stroke-linejoin="round"/>
<path d="M21.5006 41.9167C32.7765 41.9167 41.9173 32.7759 41.9173 21.5C41.9173 10.2242 32.7765 1.08337 21.5006 1.08337C10.2248 1.08337 1.08398 10.2242 1.08398 21.5C1.08398 32.7759 10.2248 41.9167 21.5006 41.9167Z" stroke="white" stroke-width="2" stroke-linecap="round" stroke-linejoin="round"/>
</svg>
