<svg width="44" height="44" viewBox="0 0 44 44" fill="none" xmlns="http://www.w3.org/2000/svg">
<g clip-path="url(#clip0_877_4606)">
<path d="M34.222 36.6666H7.33312V9.7777H23.4909L25.9353 7.33325H7.33312C6.68481 7.33325 6.06306 7.59079 5.60463 8.04921C5.14621 8.50764 4.88867 9.12939 4.88867 9.7777V36.6666C4.88867 37.3149 5.14621 37.9366 5.60463 38.3951C6.06306 38.8535 6.68481 39.111 7.33312 39.111H34.222C34.8703 39.111 35.4921 38.8535 35.9505 38.3951C36.4089 37.9366 36.6664 37.3149 36.6664 36.6666V18.3333L34.222 20.7777V36.6666Z" fill="#1E1E1E"/>
<path d="M40.982 7.13782L36.8631 3.01893C36.6803 2.83563 36.4631 2.69021 36.224 2.59098C35.9849 2.49175 35.7286 2.44067 35.4698 2.44067C35.2109 2.44067 34.9546 2.49175 34.7155 2.59098C34.4764 2.69021 34.2592 2.83563 34.0764 3.01893L17.3198 19.8734L15.9631 25.7523C15.9053 26.0372 15.9114 26.3315 15.9809 26.6138C16.0504 26.8962 16.1816 27.1596 16.3651 27.3852C16.5486 27.6107 16.7798 27.7928 17.0421 27.9184C17.3044 28.0439 17.5912 28.1097 17.882 28.1112C18.0323 28.1276 18.1839 28.1276 18.3342 28.1112L24.262 26.8034L40.982 9.92449C41.1653 9.74169 41.3107 9.52453 41.4099 9.28543C41.5092 9.04634 41.5602 8.79002 41.5602 8.53115C41.5602 8.27229 41.5092 8.01596 41.4099 7.77687C41.3107 7.53778 41.1653 7.32061 40.982 7.13782ZM22.9909 24.5423L18.5175 25.5323L19.5564 21.0956L32.1698 8.39671L35.6164 11.8434L22.9909 24.5423ZM36.9975 10.4623L33.5509 7.0156L35.4453 5.08448L38.9164 8.5556L36.9975 10.4623Z" fill="#1E1E1E"/>
</g>
<defs>
<clipPath id="clip0_877_4606">
<rect width="44" height="44" fill="white"/>
</clipPath>
</defs>
</svg>
