<svg width="23" height="23" viewBox="0 0 23 23" fill="none" xmlns="http://www.w3.org/2000/svg">
<path d="M11.5 2.875H4.79167C4.28334 2.875 3.79582 3.07693 3.43638 3.43638C3.07693 3.79582 2.875 4.28334 2.875 4.79167V18.2083C2.875 18.7167 3.07693 19.2042 3.43638 19.5636C3.79582 19.9231 4.28334 20.125 4.79167 20.125H18.2083C18.7167 20.125 19.2042 19.9231 19.5636 19.5636C19.9231 19.2042 20.125 18.7167 20.125 18.2083V11.5" stroke="black" stroke-width="2" stroke-linecap="round" stroke-linejoin="round"/>
<path d="M17.6087 2.51584C17.9899 2.13459 18.507 1.92041 19.0462 1.92041C19.5853 1.92041 20.1024 2.13459 20.4837 2.51584C20.8649 2.89709 21.0791 3.41418 21.0791 3.95334C21.0791 4.49251 20.8649 5.00959 20.4837 5.39084L11.8462 14.0293C11.6186 14.2566 11.3375 14.4231 11.0287 14.5132L8.27544 15.3182C8.19298 15.3423 8.10557 15.3437 8.02236 15.3224C7.93914 15.3011 7.86319 15.2578 7.80245 15.197C7.74171 15.1363 7.69842 15.0603 7.6771 14.9771C7.65578 14.8939 7.65722 14.8065 7.68128 14.7241L8.48628 11.9708C8.57686 11.6622 8.74362 11.3814 8.97119 11.1543L17.6087 2.51584Z" stroke="black" stroke-width="2" stroke-linecap="round" stroke-linejoin="round"/>
</svg>
