<svg width="21" height="21" viewBox="0 0 21 21" fill="none" xmlns="http://www.w3.org/2000/svg">
<path d="M10.5 2.625C11.4283 2.625 12.3185 2.99375 12.9749 3.65013C13.6313 4.3065 14 5.19674 14 6.125C14 6.76375 13.8337 7.35875 13.5275 7.875H15.75C16.5813 7.875 17.2813 8.46125 17.4563 9.24C19.215 16.2488 19.25 16.4325 19.25 16.625C19.25 17.0891 19.0656 17.5342 18.7374 17.8624C18.4092 18.1906 17.9641 18.375 17.5 18.375H3.5C3.03587 18.375 2.59075 18.1906 2.26256 17.8624C1.93437 17.5342 1.75 17.0891 1.75 16.625C1.75 16.4325 1.785 16.2488 3.54375 9.24C3.71875 8.46125 4.41875 7.875 5.25 7.875H7.4725C7.16012 7.34493 6.99686 6.74026 7 6.125C7 5.19674 7.36875 4.3065 8.02513 3.65013C8.6815 2.99375 9.57174 2.625 10.5 2.625ZM10.5 4.375C10.0359 4.375 9.59075 4.55937 9.26256 4.88756C8.93437 5.21575 8.75 5.66087 8.75 6.125C8.75 6.58913 8.93437 7.03425 9.26256 7.36244C9.59075 7.69063 10.0359 7.875 10.5 7.875C10.9641 7.875 11.4092 7.69063 11.7374 7.36244C12.0656 7.03425 12.25 6.58913 12.25 6.125C12.25 5.66087 12.0656 5.21575 11.7374 4.88756C11.4092 4.55937 10.9641 4.375 10.5 4.375Z" fill="black"/>
</svg>
